# xmcd
#
# Track frame offsets: 
#        150
#        32573
#        62820
#        93845
#
# Disc length: 1580 seconds
#
# Revision: 0
# Processed by: cddbd v1.5.2PL0 Copyright (c) Steve Scherf et al.
# Submitted via: ExactAudioCopy v0.95b4
#
DISCID=28062a04
DTITLE=Groove Coverage - God is a DJ
DYEAR=1900
DGENRE=
TTITLE0=Extended Remix
TTITLE1=Axel Konrad Remix
TTITLE2=Rocco Remix
TTITLE3=Plastic Men Remix
EXTD=
EXTT0=
EXTT1=
EXTT2=
EXTT3=
PLAYORDER=
